<?xml version="1.0" encoding="UTF-8"?>
<svg xmlns="http://www.w3.org/2000/svg" xmlns:xlink="http://www.w3.org/1999/xlink" viewBox="0 0 200 200">
  <defs>
    <style>
      .cls-1 {
        fill: url(#Gradient_bez_nazwy_78-22);
      }

      .cls-2 {
        fill: url(#Gradient_bez_nazwy_78-9);
      }

      .cls-3 {
        fill: url(#Gradient_bez_nazwy_78-17);
      }

      .cls-4 {
        fill: url(#Gradient_bez_nazwy_78-11);
      }

      .cls-5 {
        fill: url(#Gradient_bez_nazwy_78-49);
      }

      .cls-6 {
        fill: url(#Gradient_bez_nazwy_78-45);
      }

      .cls-7 {
        fill: url(#Gradient_bez_nazwy_78-30);
      }

      .cls-8 {
        fill: url(#Gradient_bez_nazwy_78-53);
      }

      .cls-9 {
        fill: url(#Gradient_bez_nazwy_82);
      }

      .cls-10 {
        fill: url(#Gradient_bez_nazwy_78-46);
      }

      .cls-11 {
        fill: url(#Gradient_bez_nazwy_78-7);
      }

      .cls-12 {
        fill: url(#Gradient_bez_nazwy_78-40);
      }

      .cls-13 {
        fill: #3aaa35;
      }

      .cls-14 {
        fill: url(#Gradient_bez_nazwy_78-44);
      }

      .cls-15 {
        fill: url(#Gradient_bez_nazwy_78-16);
      }

      .cls-16 {
        fill: url(#Gradient_bez_nazwy_78);
      }

      .cls-17 {
        fill: url(#Gradient_bez_nazwy_78-3);
      }

      .cls-18 {
        fill: url(#Gradient_bez_nazwy_78-36);
      }

      .cls-19 {
        fill: url(#Gradient_bez_nazwy_78-47);
      }

      .cls-20 {
        fill: url(#Gradient_bez_nazwy_78-2);
      }

      .cls-21 {
        fill: url(#Gradient_bez_nazwy_78-33);
      }

      .cls-22 {
        fill: url(#Gradient_bez_nazwy_78-5);
      }

      .cls-23 {
        fill: url(#Gradient_bez_nazwy_78-15);
      }

      .cls-24 {
        fill: url(#Gradient_bez_nazwy_78-8);
      }

      .cls-25 {
        fill: url(#Gradient_bez_nazwy_78-35);
      }

      .cls-26 {
        fill: url(#Gradient_bez_nazwy_78-29);
      }

      .cls-27 {
        fill: url(#Gradient_bez_nazwy_78-6);
      }

      .cls-28 {
        fill: url(#Gradient_bez_nazwy_78-12);
      }

      .cls-29 {
        fill: url(#Gradient_bez_nazwy_78-41);
      }

      .cls-30 {
        fill: #f39200;
      }

      .cls-31 {
        fill: url(#Gradient_bez_nazwy_78-10);
      }

      .cls-32 {
        fill: url(#Gradient_bez_nazwy_78-24);
      }

      .cls-33 {
        fill: url(#Gradient_bez_nazwy_78-38);
      }

      .cls-34 {
        fill: url(#Gradient_bez_nazwy_78-43);
      }

      .cls-35 {
        fill: url(#Gradient_bez_nazwy_78-19);
      }

      .cls-36 {
        fill: url(#Gradient_bez_nazwy_78-48);
      }

      .cls-37, .cls-38, .cls-39, .cls-40, .cls-41 {
        fill: none;
        stroke: #706f6f;
        stroke-miterlimit: 10;
        stroke-width: .5px;
      }

      .cls-42 {
        fill: url(#Gradient_bez_nazwy_78-32);
      }

      .cls-38 {
        opacity: .39;
      }

      .cls-39 {
        opacity: .15;
      }

      .cls-43 {
        fill: url(#Gradient_bez_nazwy_78-37);
      }

      .cls-44 {
        fill: url(#Gradient_bez_nazwy_78-27);
      }

      .cls-45 {
        fill: url(#Gradient_bez_nazwy_78-13);
      }

      .cls-40 {
        opacity: .57;
      }

      .cls-46 {
        fill: url(#Gradient_bez_nazwy_78-26);
      }

      .cls-47 {
        fill: #1d1d1b;
      }

      .cls-48 {
        fill: url(#Gradient_bez_nazwy_78-31);
      }

      .cls-49 {
        fill: url(#Gradient_bez_nazwy_78-52);
      }

      .cls-50 {
        fill: url(#Gradient_bez_nazwy_78-25);
      }

      .cls-51 {
        fill: url(#Gradient_bez_nazwy_78-20);
      }

      .cls-52 {
        fill: url(#Gradient_bez_nazwy_78-39);
      }

      .cls-53 {
        fill: #e32e3b;
      }

      .cls-54 {
        fill: url(#Gradient_bez_nazwy_78-18);
      }

      .cls-55 {
        fill: url(#Gradient_bez_nazwy_78-51);
      }

      .cls-41 {
        opacity: .26;
      }

      .cls-56 {
        fill: #3c3c3b;
      }

      .cls-57 {
        fill: url(#Gradient_bez_nazwy_78-50);
      }

      .cls-58 {
        fill: url(#Gradient_bez_nazwy_78-28);
      }

      .cls-59 {
        fill: url(#Gradient_bez_nazwy_78-34);
      }

      .cls-60 {
        fill: url(#Gradient_bez_nazwy_78-23);
      }

      .cls-61 {
        fill: url(#Gradient_bez_nazwy_78-21);
      }

      .cls-62 {
        fill: url(#Gradient_bez_nazwy_78-4);
      }

      .cls-63 {
        fill: url(#Gradient_bez_nazwy_78-14);
      }

      .cls-64 {
        fill: url(#Gradient_bez_nazwy_78-42);
      }
    </style>
    <radialGradient id="Gradient_bez_nazwy_82" data-name="Gradient bez nazwy 82" cx="100" cy="178.77" fx="100" fy="178.77" r="85.57" gradientTransform="translate(11.37 41.54) scale(.89 .77)" gradientUnits="userSpaceOnUse">
      <stop offset="0" stop-color="#83b3e1"/>
      <stop offset="1" stop-color="#1d1d1b" stop-opacity="0"/>
    </radialGradient>
    <linearGradient id="Gradient_bez_nazwy_78" data-name="Gradient bez nazwy 78" x1="71.53" y1="166.68" x2="71.53" y2="162.5" gradientUnits="userSpaceOnUse">
      <stop offset="0" stop-color="#83b3e1"/>
      <stop offset="1" stop-color="#b8dbff"/>
    </linearGradient>
    <linearGradient id="Gradient_bez_nazwy_78-2" data-name="Gradient bez nazwy 78" x1="74.39" y1="166.74" x2="74.39" y2="163.64" xlink:href="#Gradient_bez_nazwy_78"/>
    <linearGradient id="Gradient_bez_nazwy_78-3" data-name="Gradient bez nazwy 78" x1="77.02" y1="167.69" x2="77.02" y2="163.7" xlink:href="#Gradient_bez_nazwy_78"/>
    <linearGradient id="Gradient_bez_nazwy_78-4" data-name="Gradient bez nazwy 78" x1="79.73" y1="166.74" x2="79.73" y2="163.64" xlink:href="#Gradient_bez_nazwy_78"/>
    <linearGradient id="Gradient_bez_nazwy_78-5" data-name="Gradient bez nazwy 78" x1="82.7" x2="82.7" y2="163.64" xlink:href="#Gradient_bez_nazwy_78"/>
    <linearGradient id="Gradient_bez_nazwy_78-6" data-name="Gradient bez nazwy 78" x1="85.65" y1="166.74" x2="85.65" y2="162.21" xlink:href="#Gradient_bez_nazwy_78"/>
    <linearGradient id="Gradient_bez_nazwy_78-7" data-name="Gradient bez nazwy 78" x1="89.75" y1="166.74" x2="89.75" y2="162.21" xlink:href="#Gradient_bez_nazwy_78"/>
    <linearGradient id="Gradient_bez_nazwy_78-8" data-name="Gradient bez nazwy 78" x1="92.63" y1="166.74" x2="92.63" y2="163.64" xlink:href="#Gradient_bez_nazwy_78"/>
    <linearGradient id="Gradient_bez_nazwy_78-9" data-name="Gradient bez nazwy 78" x1="95.47" y1="166.74" x2="95.47" y2="163.64" xlink:href="#Gradient_bez_nazwy_78"/>
    <linearGradient id="Gradient_bez_nazwy_78-10" data-name="Gradient bez nazwy 78" x1="98.49" y1="166.74" x2="98.49" y2="163.7" xlink:href="#Gradient_bez_nazwy_78"/>
    <linearGradient id="Gradient_bez_nazwy_78-11" data-name="Gradient bez nazwy 78" x1="100.88" y1="166.74" x2="100.88" y2="162.8" xlink:href="#Gradient_bez_nazwy_78"/>
    <linearGradient id="Gradient_bez_nazwy_78-12" data-name="Gradient bez nazwy 78" x1="102.32" x2="102.32" y2="162.47" xlink:href="#Gradient_bez_nazwy_78"/>
    <linearGradient id="Gradient_bez_nazwy_78-13" data-name="Gradient bez nazwy 78" x1="103.79" x2="103.79" y2="162.21" xlink:href="#Gradient_bez_nazwy_78"/>
    <linearGradient id="Gradient_bez_nazwy_78-14" data-name="Gradient bez nazwy 78" x1="106.05" y1="166.74" x2="106.05" y2="163.7" xlink:href="#Gradient_bez_nazwy_78"/>
    <linearGradient id="Gradient_bez_nazwy_78-15" data-name="Gradient bez nazwy 78" x1="108.1" x2="108.1" y2="162.21" xlink:href="#Gradient_bez_nazwy_78"/>
    <linearGradient id="Gradient_bez_nazwy_78-16" data-name="Gradient bez nazwy 78" x1="111.9" x2="111.9" y2="163.7" xlink:href="#Gradient_bez_nazwy_78"/>
    <linearGradient id="Gradient_bez_nazwy_78-17" data-name="Gradient bez nazwy 78" x1="115.41" y1="166.74" x2="115.41" y2="163.64" xlink:href="#Gradient_bez_nazwy_78"/>
    <linearGradient id="Gradient_bez_nazwy_78-18" data-name="Gradient bez nazwy 78" x1="118.35" y1="166.74" x2="118.35" y2="162.21" xlink:href="#Gradient_bez_nazwy_78"/>
    <linearGradient id="Gradient_bez_nazwy_78-19" data-name="Gradient bez nazwy 78" x1="120.94" y1="166.74" x2="120.94" y2="163.64" xlink:href="#Gradient_bez_nazwy_78"/>
    <linearGradient id="Gradient_bez_nazwy_78-20" data-name="Gradient bez nazwy 78" x1="122.63" x2="122.63" y2="162.47" xlink:href="#Gradient_bez_nazwy_78"/>
    <linearGradient id="Gradient_bez_nazwy_78-21" data-name="Gradient bez nazwy 78" x1="124.1" y1="166.74" x2="124.1" y2="162.8" xlink:href="#Gradient_bez_nazwy_78"/>
    <linearGradient id="Gradient_bez_nazwy_78-22" data-name="Gradient bez nazwy 78" x1="126.29" y1="166.74" x2="126.29" y2="163.64" xlink:href="#Gradient_bez_nazwy_78"/>
    <linearGradient id="Gradient_bez_nazwy_78-23" data-name="Gradient bez nazwy 78" x1="128.78" y1="166.74" x2="128.78" y2="163.64" xlink:href="#Gradient_bez_nazwy_78"/>
    <linearGradient id="Gradient_bez_nazwy_78-24" data-name="Gradient bez nazwy 78" x1="130.72" y1="166.74" x2="130.72" y2="164.17" xlink:href="#Gradient_bez_nazwy_78"/>
    <linearGradient id="Gradient_bez_nazwy_78-25" data-name="Gradient bez nazwy 78" x1="65.44" y1="173.84" x2="65.44" y2="169.67" xlink:href="#Gradient_bez_nazwy_78"/>
    <linearGradient id="Gradient_bez_nazwy_78-26" data-name="Gradient bez nazwy 78" x1="68.11" y1="173.84" x2="68.11" y2="170.8" xlink:href="#Gradient_bez_nazwy_78"/>
    <linearGradient id="Gradient_bez_nazwy_78-27" data-name="Gradient bez nazwy 78" x1="69.65" y1="173.84" x2="69.65" y2="169.64" xlink:href="#Gradient_bez_nazwy_78"/>
    <linearGradient id="Gradient_bez_nazwy_78-28" data-name="Gradient bez nazwy 78" x1="71.69" y1="173.84" x2="71.69" y2="170.86" xlink:href="#Gradient_bez_nazwy_78"/>
    <linearGradient id="Gradient_bez_nazwy_78-29" data-name="Gradient bez nazwy 78" x1="73.67" y1="173.84" x2="73.67" y2="169.64" xlink:href="#Gradient_bez_nazwy_78"/>
    <linearGradient id="Gradient_bez_nazwy_78-30" data-name="Gradient bez nazwy 78" x1="75.76" y1="173.84" x2="75.76" y2="170.8" xlink:href="#Gradient_bez_nazwy_78"/>
    <linearGradient id="Gradient_bez_nazwy_78-31" data-name="Gradient bez nazwy 78" x1="78.67" y1="174.86" x2="78.67" y2="170.52" xlink:href="#Gradient_bez_nazwy_78"/>
    <linearGradient id="Gradient_bez_nazwy_78-32" data-name="Gradient bez nazwy 78" x1="82.48" y1="174.86" x2="82.48" y2="170.52" xlink:href="#Gradient_bez_nazwy_78"/>
    <linearGradient id="Gradient_bez_nazwy_78-33" data-name="Gradient bez nazwy 78" x1="85" y1="173.84" x2="85" y2="170.8" xlink:href="#Gradient_bez_nazwy_78"/>
    <linearGradient id="Gradient_bez_nazwy_78-34" data-name="Gradient bez nazwy 78" x1="87.32" y1="173.91" x2="87.32" y2="170.8" xlink:href="#Gradient_bez_nazwy_78"/>
    <linearGradient id="Gradient_bez_nazwy_78-35" data-name="Gradient bez nazwy 78" x1="90.9" y1="173.84" x2="90.9" y2="170.86" xlink:href="#Gradient_bez_nazwy_78"/>
    <linearGradient id="Gradient_bez_nazwy_78-36" data-name="Gradient bez nazwy 78" x1="93.98" y1="173.9" x2="93.98" y2="169.96" xlink:href="#Gradient_bez_nazwy_78"/>
    <linearGradient id="Gradient_bez_nazwy_78-37" data-name="Gradient bez nazwy 78" x1="96.35" y1="173.84" x2="96.35" y2="169.37" xlink:href="#Gradient_bez_nazwy_78"/>
    <linearGradient id="Gradient_bez_nazwy_78-38" data-name="Gradient bez nazwy 78" x1="100.29" y1="173.9" x2="100.29" y2="170.8" xlink:href="#Gradient_bez_nazwy_78"/>
    <linearGradient id="Gradient_bez_nazwy_78-39" data-name="Gradient bez nazwy 78" x1="103.33" y1="173.84" x2="103.33" y2="170.8" xlink:href="#Gradient_bez_nazwy_78"/>
    <linearGradient id="Gradient_bez_nazwy_78-40" data-name="Gradient bez nazwy 78" x1="106.28" y1="173.9" x2="106.28" y2="169.37" xlink:href="#Gradient_bez_nazwy_78"/>
    <linearGradient id="Gradient_bez_nazwy_78-41" data-name="Gradient bez nazwy 78" x1="110.03" y1="173.9" x2="110.03" y2="170.8" xlink:href="#Gradient_bez_nazwy_78"/>
    <linearGradient id="Gradient_bez_nazwy_78-42" data-name="Gradient bez nazwy 78" x1="112.68" y1="173.91" x2="112.68" y2="170.8" xlink:href="#Gradient_bez_nazwy_78"/>
    <linearGradient id="Gradient_bez_nazwy_78-43" data-name="Gradient bez nazwy 78" x1="115.65" y1="173.84" x2="115.65" y2="170.8" xlink:href="#Gradient_bez_nazwy_78"/>
    <linearGradient id="Gradient_bez_nazwy_78-44" data-name="Gradient bez nazwy 78" x1="118.48" y1="173.84" x2="118.48" y2="170.86" xlink:href="#Gradient_bez_nazwy_78"/>
    <linearGradient id="Gradient_bez_nazwy_78-45" data-name="Gradient bez nazwy 78" x1="121.21" y1="173.91" x2="121.21" y2="170.8" xlink:href="#Gradient_bez_nazwy_78"/>
    <linearGradient id="Gradient_bez_nazwy_78-46" data-name="Gradient bez nazwy 78" x1="123.68" y1="173.84" x2="123.68" y2="170.8" xlink:href="#Gradient_bez_nazwy_78"/>
    <linearGradient id="Gradient_bez_nazwy_78-47" data-name="Gradient bez nazwy 78" x1="125.77" y1="173.9" x2="125.77" y2="170.8" xlink:href="#Gradient_bez_nazwy_78"/>
    <linearGradient id="Gradient_bez_nazwy_78-48" data-name="Gradient bez nazwy 78" x1="127.47" y1="173.84" x2="127.47" y2="169.64" xlink:href="#Gradient_bez_nazwy_78"/>
    <linearGradient id="Gradient_bez_nazwy_78-49" data-name="Gradient bez nazwy 78" x1="129.52" y1="173.91" x2="129.52" y2="170.8" xlink:href="#Gradient_bez_nazwy_78"/>
    <linearGradient id="Gradient_bez_nazwy_78-50" data-name="Gradient bez nazwy 78" x1="132.48" y1="173.84" x2="132.48" y2="170.8" xlink:href="#Gradient_bez_nazwy_78"/>
    <linearGradient id="Gradient_bez_nazwy_78-51" data-name="Gradient bez nazwy 78" x1="135.11" y1="173.9" x2="135.11" y2="170.8" xlink:href="#Gradient_bez_nazwy_78"/>
    <linearGradient id="Gradient_bez_nazwy_78-52" data-name="Gradient bez nazwy 78" x1="136.98" y1="173.9" x2="136.98" y2="172.85" xlink:href="#Gradient_bez_nazwy_78"/>
    <linearGradient id="Gradient_bez_nazwy_78-53" data-name="Gradient bez nazwy 78" x1="101.23" y1="189" x2="101.23" y2="182.53" xlink:href="#Gradient_bez_nazwy_78"/>
  </defs>
  <g id="bg">
    <g id="Warstwa_4" data-name="Warstwa 4">
      <ellipse class="cls-9" cx="100" cy="178.77" rx="77.94" ry="66.78"/>
    </g>
    <circle class="cls-37" cx="100.88" cy="192.44" r="49.72"/>
    <circle class="cls-37" cx="101.28" cy="192.44" r="60.88"/>
    <circle class="cls-40" cx="101.28" cy="192.44" r="78.21"/>
    <circle class="cls-38" cx="100.67" cy="192.44" r="96.52"/>
    <circle class="cls-41" cx="100.67" cy="192.44" r="114.6"/>
    <circle class="cls-39" cx="101.28" cy="192.44" r="139.33"/>
  </g>
  <g id="laptop">
    <g id="lapbg">
      <path class="cls-56" d="M63.12,141.24h75.89c2.23,0,4.05,1.81,4.05,4.05v54.63H59.08v-54.63c0-2.23,1.81-4.05,4.05-4.05Z"/>
      <rect class="cls-47" x="60.32" y="146.04" width="81.51" height="52.22" rx="3.22" ry="3.22"/>
      <circle class="cls-53" cx="62.24" cy="143.74" r="1.08"/>
      <circle class="cls-30" cx="65.72" cy="143.74" r="1.08"/>
      <circle class="cls-13" cx="69.17" cy="143.74" r="1.08"/>
      <g>
        <path class="cls-16" d="M70.16,162.5h1.4c.69,0,1.23.33,1.23,1.09,0,.41-.16.76-.42.91.3.14.52.47.52.94,0,.76-.52,1.23-1.32,1.23h-1.42v-4.17ZM71.43,164.2c.31,0,.51-.18.51-.46s-.18-.46-.45-.46h-.47v.92h.41ZM71.49,165.9c.36,0,.55-.22.55-.54s-.21-.5-.58-.5h-.44v1.03h.47Z"/>
        <path class="cls-20" d="M74.4,163.64c.83,0,1.35.64,1.32,1.72h-1.84c.04.41.38.67.84.67.39,0,.64-.15.81-.35v.77c-.23.18-.57.29-.95.29-.95,0-1.52-.61-1.52-1.55s.55-1.55,1.34-1.55ZM74.92,164.92c-.07-.36-.25-.57-.53-.57s-.45.23-.51.57h1.03Z"/>
        <path class="cls-17" d="M76.62,166.49l-1.01-2.8h.91l.49,1.9.03.12h0s.06-.32.06-.32l.48-1.7h.87l-1.47,3.99h-.78l.42-1.19Z"/>
        <path class="cls-62" d="M78.34,165.19c0-.97.58-1.55,1.4-1.55s1.4.58,1.4,1.55-.58,1.55-1.4,1.55c-.82,0-1.4-.59-1.4-1.55ZM79.74,166.05c.38,0,.61-.37.61-.85s-.21-.86-.61-.86-.61.4-.61.86c0,.48.23.85.61.85Z"/>
        <path class="cls-22" d="M82.75,164.32c-.33,0-.61.35-.61.82v1.55h-.76v-2.98h.76v.39c.21-.27.51-.45.86-.45.66,0,1.03.45,1.03,1.29v1.75h-.76v-1.6c0-.5-.17-.76-.51-.76Z"/>
        <path class="cls-27" d="M84.27,165.19c0-.89.52-1.55,1.26-1.55.31,0,.56.12.75.31v-1.74h.76v4.47h-.76v-.26c-.18.2-.44.32-.75.32-.75,0-1.26-.66-1.26-1.55ZM85.66,166.08c.35,0,.61-.33.61-.89,0-.53-.28-.88-.61-.88s-.63.35-.63.89c0,.57.28.89.63.89Z"/>
        <path class="cls-11" d="M89.13,166.42v.26h-.76v-4.47h.76v1.75c.19-.2.44-.32.74-.32.78,0,1.27.66,1.27,1.55s-.49,1.55-1.27,1.55c-.3,0-.55-.12-.74-.32ZM89.76,166.08c.35,0,.61-.35.61-.89s-.27-.89-.61-.89c-.36,0-.63.38-.63.88,0,.54.26.89.63.89Z"/>
        <path class="cls-24" d="M92.64,163.64c.83,0,1.35.64,1.32,1.72h-1.84c.04.41.38.67.84.67.39,0,.64-.15.81-.35v.77c-.23.18-.57.29-.95.29-.95,0-1.52-.61-1.52-1.55s.55-1.55,1.34-1.55ZM93.16,164.92c-.07-.36-.25-.57-.53-.57s-.45.23-.51.57h1.03Z"/>
        <path class="cls-2" d="M94.1,165.19c0-.89.52-1.55,1.26-1.55.33,0,.57.14.75.36v-.3h.73v2.98h-.73v-.3c-.17.22-.42.36-.75.36-.75,0-1.26-.66-1.26-1.55ZM95.48,166.08c.34,0,.63-.3.63-.89s-.29-.88-.63-.88-.61.34-.61.89.27.89.61.89Z"/>
        <path class="cls-31" d="M97.17,165.46v-1.76h.76v1.56c0,.49.14.79.51.79s.61-.32.61-.93v-1.42h.76v2.98h-.76v-.38c-.24.3-.58.44-.9.44-.6,0-.98-.44-.98-1.28Z"/>
        <path class="cls-4" d="M100.15,165.32v-2.52h.76v.89h.7v.67h-.7v.83c0,.63.24.84.7.84v.7c-.98,0-1.46-.41-1.46-1.41Z"/>
        <path class="cls-28" d="M102.32,162.47c.29,0,.49.2.49.49s-.2.5-.49.5-.49-.2-.49-.5.2-.49.49-.49ZM101.94,163.7h.76v2.98h-.76v-2.98Z"/>
        <path class="cls-45" d="M104.52,162.21v.71c-.44,0-.68.21-.7.78h.69v.67h-.69v2.31h-.76v-2.94c0-.97.51-1.53,1.46-1.53Z"/>
        <path class="cls-63" d="M104.73,165.46v-1.76h.76v1.56c0,.49.14.79.51.79s.61-.32.61-.93v-1.42h.76v2.98h-.76v-.38c-.24.3-.58.44-.9.44-.6,0-.98-.44-.98-1.28Z"/>
        <path class="cls-23" d="M107.72,162.21h.76v4.47h-.76v-4.47Z"/>
        <path class="cls-15" d="M109.71,163.7h.9l.42,2.12.02.11h0l.04-.35.37-1.89h.87l.42,2.14.02.11h0l.04-.35.36-1.9h.89l-.72,2.98h-1.09l-.38-1.92-.38,1.92h-1.09l-.73-2.98Z"/>
        <path class="cls-3" d="M115.42,163.64c.84,0,1.35.64,1.32,1.72h-1.84c.04.41.38.67.84.67.39,0,.64-.15.81-.35v.77c-.23.18-.57.29-.95.29-.95,0-1.52-.61-1.52-1.55s.55-1.55,1.34-1.55ZM115.94,164.92c-.07-.36-.25-.57-.53-.57s-.45.23-.51.57h1.03Z"/>
        <path class="cls-54" d="M117.73,166.42v.26h-.76v-4.47h.76v1.75c.19-.2.44-.32.74-.32.78,0,1.27.66,1.27,1.55s-.49,1.55-1.27,1.55c-.3,0-.55-.12-.74-.32ZM118.35,166.08c.35,0,.61-.35.61-.89s-.27-.89-.61-.89c-.36,0-.63.38-.63.88,0,.54.26.89.63.89Z"/>
        <path class="cls-35" d="M121.04,163.64c.34,0,.67.1.83.21v.69c-.09-.07-.33-.27-.67-.27-.2,0-.37.1-.37.29,0,.42,1.15.59,1.15,1.34,0,.45-.43.84-1.07.84-.42,0-.78-.12-.98-.25v-.69c.16.13.49.32.78.32.17,0,.33-.08.33-.26,0-.39-1.15-.58-1.15-1.34,0-.51.47-.88,1.15-.88Z"/>
        <path class="cls-51" d="M122.63,162.47c.29,0,.49.2.49.49s-.2.5-.49.5-.49-.2-.49-.5.2-.49.49-.49ZM122.25,163.7h.76v2.98h-.76v-2.98Z"/>
        <path class="cls-61" d="M123.37,165.32v-2.52h.76v.89h.7v.67h-.7v.83c0,.63.24.84.7.84v.7c-.98,0-1.46-.41-1.46-1.41Z"/>
        <path class="cls-1" d="M126.29,163.64c.84,0,1.35.64,1.32,1.72h-1.84c.04.41.38.67.84.67.39,0,.64-.15.81-.35v.77c-.23.18-.57.29-.95.29-.95,0-1.52-.61-1.52-1.55s.55-1.55,1.34-1.55ZM126.81,164.92c-.07-.36-.25-.57-.53-.57s-.45.23-.51.57h1.03Z"/>
        <path class="cls-60" d="M128.89,163.64c.34,0,.67.1.83.21v.69c-.09-.07-.33-.27-.67-.27-.2,0-.37.1-.37.29,0,.42,1.15.59,1.15,1.34,0,.45-.43.84-1.07.84-.42,0-.78-.12-.98-.25v-.69c.16.13.49.32.78.32.17,0,.33-.08.33-.26,0-.39-1.15-.58-1.15-1.34,0-.51.47-.88,1.15-.88Z"/>
        <path class="cls-32" d="M130.72,164.17c.31,0,.52.21.52.53s-.21.52-.52.52-.53-.22-.53-.52.21-.53.53-.53ZM130.19,166.21c0-.31.21-.52.53-.52s.52.21.52.52-.21.53-.52.53-.53-.22-.53-.53Z"/>
        <path class="cls-50" d="M66.93,171.73c0,1.26-.7,2.11-1.91,2.11h-1.07v-4.17h1.07c1.22,0,1.91.81,1.91,2.07ZM65.1,173.12c.61,0,.99-.48.99-1.38s-.38-1.35-.99-1.35h-.27v2.73h.27Z"/>
        <path class="cls-46" d="M67.2,170.86h.76v.57c.16-.38.55-.63,1.06-.63v.76c-.43,0-1.04.2-1.06,1.19v1.1h-.76v-2.98Z"/>
        <path class="cls-44" d="M69.65,169.64c.29,0,.49.2.49.49s-.2.5-.49.5-.49-.2-.49-.5.2-.49.49-.49ZM69.27,170.86h.76v2.98h-.76v-2.98Z"/>
        <path class="cls-58" d="M70.27,170.86h.86l.57,2.29.56-2.29h.86l-.81,2.98h-1.22l-.82-2.98Z"/>
        <path class="cls-26" d="M73.67,169.64c.29,0,.49.2.49.49s-.2.5-.49.5-.49-.2-.49-.5.2-.49.49-.49ZM73.29,170.86h.76v2.98h-.76v-2.98Z"/>
        <path class="cls-7" d="M75.81,171.48c-.33,0-.61.35-.61.82v1.55h-.76v-2.98h.76v.39c.21-.27.51-.45.86-.45.66,0,1.03.45,1.03,1.29v1.75h-.76v-1.6c0-.5-.17-.76-.51-.76Z"/>
        <path class="cls-48" d="M77.37,173.87l.78-.13c.03.23.18.45.52.45s.51-.17.51-.43c0-.23-.2-.37-.52-.37-.78,0-1.31-.47-1.31-1.31s.53-1.28,1.31-1.28c.19,0,.35.02.5.07.18-.21.47-.35.84-.35v.71c-.1,0-.17.05-.21.11.13.2.19.45.19.74,0,.43-.14.76-.38.98.24.17.38.42.38.73,0,.63-.47,1.07-1.27,1.07-.75,0-1.25-.4-1.34-.99ZM78.65,172.74c.32,0,.52-.26.52-.66s-.2-.64-.52-.64-.52.23-.52.64.22.66.52.66Z"/>
        <path class="cls-42" d="M81.17,173.87l.78-.13c.03.23.18.45.52.45s.51-.17.51-.43c0-.23-.2-.37-.52-.37-.78,0-1.31-.47-1.31-1.31s.53-1.28,1.31-1.28c.19,0,.35.02.5.07.18-.21.47-.35.84-.35v.71c-.1,0-.17.05-.21.11.13.2.19.45.19.74,0,.43-.14.76-.38.98.24.17.38.42.38.73,0,.63-.47,1.07-1.27,1.07-.75,0-1.25-.4-1.34-.99ZM82.46,172.74c.32,0,.52-.26.52-.66s-.2-.64-.52-.64-.52.23-.52.64.22.66.52.66Z"/>
        <path class="cls-21" d="M84.09,170.86h.76v.57c.15-.38.55-.63,1.06-.63v.76c-.43,0-1.04.2-1.06,1.19v1.1h-.76v-2.98Z"/>
        <path class="cls-59" d="M85.92,172.35c0-.97.58-1.55,1.4-1.55s1.4.58,1.4,1.55-.58,1.55-1.4,1.55c-.82,0-1.4-.59-1.4-1.55ZM87.32,173.21c.38,0,.61-.37.61-.85s-.21-.86-.61-.86-.61.4-.61.86c0,.48.23.85.61.85Z"/>
        <path class="cls-25" d="M88.71,170.86h.9l.42,2.12.02.11h0l.04-.35.37-1.89h.87l.42,2.14.02.11h0l.04-.35.36-1.9h.89l-.72,2.98h-1.09l-.38-1.92-.38,1.92h-1.09l-.73-2.98Z"/>
        <path class="cls-18" d="M93.25,172.49v-2.52h.76v.89h.7v.67h-.7v.83c0,.63.24.84.7.84v.7c-.98,0-1.46-.41-1.46-1.41Z"/>
        <path class="cls-43" d="M96.4,171.48c-.33,0-.61.35-.61.84v1.52h-.76v-4.47h.76v1.85c.2-.26.51-.42.82-.42.67,0,1.07.46,1.07,1.35v1.69h-.77v-1.56c0-.52-.17-.8-.51-.8Z"/>
        <path class="cls-33" d="M98.92,172.35c0-.89.52-1.55,1.26-1.55.33,0,.57.14.75.36v-.3h.73v2.98h-.73v-.3c-.17.22-.42.36-.75.36-.75,0-1.26-.66-1.26-1.55ZM100.3,173.24c.34,0,.63-.3.63-.89s-.29-.88-.63-.88-.61.34-.61.89.27.89.61.89Z"/>
        <path class="cls-52" d="M103.38,171.48c-.33,0-.61.35-.61.82v1.55h-.76v-2.98h.76v.39c.21-.27.51-.45.86-.45.66,0,1.03.45,1.03,1.29v1.75h-.76v-1.6c0-.5-.17-.76-.51-.76Z"/>
        <path class="cls-12" d="M104.89,172.35c0-.89.52-1.55,1.26-1.55.31,0,.56.12.75.31v-1.74h.76v4.47h-.76v-.26c-.19.2-.44.32-.75.32-.75,0-1.26-.66-1.26-1.55ZM106.29,173.24c.35,0,.61-.33.61-.89,0-.53-.28-.88-.61-.88s-.63.35-.63.89c0,.57.28.89.63.89Z"/>
        <path class="cls-29" d="M110.38,170.8c.35,0,.58.09.78.21v.8c-.16-.19-.39-.3-.69-.3-.45,0-.77.37-.77.84s.32.84.78.84c.29,0,.52-.1.68-.3v.81c-.19.13-.43.2-.77.2-.88,0-1.49-.63-1.49-1.55s.6-1.55,1.48-1.55Z"/>
        <path class="cls-64" d="M111.28,172.35c0-.97.58-1.55,1.4-1.55s1.39.58,1.39,1.55-.58,1.55-1.39,1.55c-.82,0-1.4-.59-1.4-1.55ZM112.69,173.21c.38,0,.61-.37.61-.85s-.21-.86-.61-.86-.61.4-.61.86c0,.48.23.85.61.85Z"/>
        <path class="cls-34" d="M115.7,171.48c-.33,0-.61.35-.61.82v1.55h-.76v-2.98h.76v.39c.21-.27.51-.45.86-.45.66,0,1.03.45,1.03,1.29v1.75h-.76v-1.6c0-.5-.17-.76-.51-.76Z"/>
        <path class="cls-14" d="M117.06,170.86h.86l.57,2.29.56-2.29h.86l-.81,2.98h-1.22l-.82-2.98Z"/>
        <path class="cls-6" d="M121.22,170.8c.84,0,1.35.64,1.32,1.72h-1.84c.04.41.38.67.84.67.39,0,.64-.15.81-.35v.77c-.23.18-.57.29-.95.29-.95,0-1.52-.61-1.52-1.55s.55-1.55,1.34-1.55ZM121.74,172.08c-.07-.36-.25-.57-.53-.57s-.45.23-.51.57h1.03Z"/>
        <path class="cls-10" d="M122.77,170.86h.76v.57c.16-.38.55-.63,1.06-.63v.76c-.43,0-1.04.2-1.06,1.19v1.1h-.76v-2.98Z"/>
        <path class="cls-19" d="M125.87,170.8c.34,0,.67.1.83.21v.69c-.09-.07-.33-.27-.67-.27-.2,0-.37.1-.37.29,0,.42,1.15.59,1.15,1.34,0,.45-.43.84-1.07.84-.42,0-.78-.12-.98-.25v-.69c.16.13.49.32.78.32.17,0,.33-.08.33-.26,0-.39-1.15-.58-1.15-1.34,0-.51.47-.88,1.15-.88Z"/>
        <path class="cls-36" d="M127.47,169.64c.29,0,.49.2.49.49s-.2.5-.49.5-.49-.2-.49-.5.2-.49.49-.49ZM127.09,170.86h.76v2.98h-.76v-2.98Z"/>
        <path class="cls-5" d="M128.12,172.35c0-.97.58-1.55,1.4-1.55s1.39.58,1.39,1.55-.58,1.55-1.39,1.55c-.82,0-1.4-.59-1.4-1.55ZM129.52,173.21c.38,0,.61-.37.61-.85s-.21-.86-.61-.86-.61.4-.61.86c0,.48.23.85.61.85Z"/>
        <path class="cls-57" d="M132.53,171.48c-.33,0-.61.35-.61.82v1.55h-.76v-2.98h.76v.39c.21-.27.51-.45.86-.45.66,0,1.03.45,1.03,1.29v1.75h-.76v-1.6c0-.5-.17-.76-.51-.76Z"/>
        <path class="cls-55" d="M135.21,170.8c.34,0,.67.1.83.21v.69c-.09-.07-.33-.27-.67-.27-.2,0-.37.1-.37.29,0,.42,1.15.59,1.15,1.34,0,.45-.43.84-1.07.84-.42,0-.78-.12-.98-.25v-.69c.16.13.49.32.78.32.17,0,.33-.08.33-.26,0-.39-1.15-.58-1.15-1.34,0-.51.47-.88,1.15-.88Z"/>
        <path class="cls-49" d="M136.46,173.37c0-.31.21-.52.52-.52s.52.21.52.52-.21.53-.52.53-.52-.22-.52-.53Z"/>
      </g>
      <rect class="cls-8" x="89.16" y="182.53" width="24.14" height="6.46" rx="1.67" ry="1.67"/>
      <g>
        <path class="cls-47" d="M91.81,185.77c0-.98.59-1.52,1.34-1.52.62,0,1.07.42,1.22.92l-.59.19c-.1-.31-.31-.53-.61-.53-.4,0-.71.33-.71.93,0,.54.29.92.71.92.33,0,.56-.2.63-.52h-.64v-.45h1.29v.15c0,.78-.49,1.41-1.3,1.41-.74,0-1.34-.54-1.34-1.51Z"/>
        <path class="cls-47" d="M95.51,185.1c.59,0,.95.45.93,1.21h-1.3c.03.29.27.47.59.47.27,0,.45-.11.57-.24v.54c-.16.13-.4.21-.67.21-.67,0-1.07-.43-1.07-1.09s.39-1.09.94-1.09ZM95.87,186c-.05-.25-.18-.4-.37-.4s-.32.16-.36.4h.73Z"/>
        <path class="cls-47" d="M96.61,186.28v-1.78h.54v.63h.49v.47h-.49v.59c0,.44.17.59.49.59v.5c-.69,0-1.03-.29-1.03-1Z"/>
        <path class="cls-47" d="M99.31,185.09c.24,0,.48.07.59.15v.48c-.06-.05-.24-.19-.47-.19-.14,0-.26.07-.26.21,0,.29.81.42.81.94,0,.32-.3.59-.76.59-.29,0-.55-.08-.69-.18v-.49c.11.09.34.22.55.22.12,0,.23-.06.23-.19,0-.27-.81-.41-.81-.94,0-.36.33-.62.81-.62Z"/>
        <path class="cls-47" d="M100.16,186.28v-1.78h.54v.63h.49v.47h-.49v.59c0,.44.17.59.49.59v.5c-.69,0-1.03-.29-1.03-1Z"/>
        <path class="cls-47" d="M101.28,186.19c0-.63.37-1.09.89-1.09.23,0,.4.1.53.25v-.21h.52v2.1h-.52v-.21c-.12.16-.29.25-.53.25-.53,0-.89-.47-.89-1.09ZM102.25,186.81c.24,0,.44-.21.44-.63s-.2-.62-.44-.62-.43.24-.43.63.19.63.43.63Z"/>
        <path class="cls-47" d="M103.45,185.14h.54v.4c.11-.27.39-.45.74-.45v.53c-.3,0-.73.14-.74.84v.77h-.54v-2.1Z"/>
        <path class="cls-47" d="M104.89,186.28v-1.78h.54v.63h.49v.47h-.49v.59c0,.44.17.59.49.59v.5c-.69,0-1.03-.29-1.03-1Z"/>
        <path class="cls-47" d="M106.95,185.1c.59,0,.95.45.93,1.21h-1.3c.03.29.27.47.59.47.27,0,.45-.11.57-.24v.54c-.16.13-.4.21-.67.21-.67,0-1.07-.43-1.07-1.09s.39-1.09.94-1.09ZM107.32,186c-.05-.25-.18-.4-.37-.4s-.32.16-.36.4h.73Z"/>
        <path class="cls-47" d="M107.98,186.19c0-.63.37-1.09.89-1.09.22,0,.4.08.53.22v-1.23h.54v3.16h-.54v-.18c-.13.14-.31.23-.53.23-.53,0-.89-.47-.89-1.09ZM108.96,186.81c.24,0,.43-.23.43-.63,0-.37-.2-.62-.43-.62s-.44.25-.44.63c0,.4.2.63.44.63Z"/>
      </g>
    </g>
    <g id="search">
      <rect class="cls-56" x="87.24" y="150.71" width="27.67" height="5" rx="1.98" ry="1.98"/>
      <circle class="cls-47" cx="112.07" cy="153.21" r="1.94"/>
    </g>
  </g>
</svg>